<?xml version="1.0" encoding="UTF-8"?><svg id="_层_1" xmlns="http://www.w3.org/2000/svg" viewBox="0 0 1190.55 1190.55"><defs><style>.cls-1{fill:#231815;}</style></defs><path class="cls-1" d="M365.31,514.34v16.97c0,9.65,15,9.67,15,0v-16.97c0-9.65-15-9.67-15,0h0Z"/><path class="cls-1" d="M349.94,590.54c-.57,.04-1.14-.02-1.72-.02-2.14,0,.54,.2-.38-.03-1.03-.26-2.05-.47-3.08-.77-1.74-.52,.02,.27-1.73-.7-.95-.53-1.9-1.04-2.78-1.68-.12-.09-1.38-1.19-2.18-2.02-1.03-1.08-1.77-2.12-2.54-3.39-6.99-11.62-8.28-30.51,5.05-37.78,11.53-6.29,27.69-6.06,40.42-5.01,13.45,1.11,28.16,6.42,30.18,21.56,1.12,8.41-.54,18.23-6.79,24.37-2,1.96-4.31,3.47-7.11,4.64,1.02-.43-.46,.14-.71,.22-.79,.26-1.58,.51-2.38,.71-.42,.11-.86,.19-1.28,.3-2.12,.54,.22,.05-.87,.17-4.03,.42-7.5,3.15-7.5,7.5,0,3.73,3.45,7.92,7.5,7.5,18.5-1.93,31.59-15.8,33.89-34.14,1.43-11.42-.6-23.19-8.08-32.22-6.1-7.36-15.27-11.68-24.44-13.78-9.08-2.08-18.46-2.38-27.73-2.02s-18.71,1.34-27.3,4.79-15.96,9.12-19.72,17.73c-4.59,10.51-3.72,23.24-.15,33.94,4.4,13.18,16.3,26.15,31.42,25.14,9.58-.64,9.65-15.65,0-15h0Z"/><path class="cls-1" d="M347.58,576.62h46.79c9.65,0,9.67-15,0-15h-46.79c-9.65,0-9.67,15,0,15h0Z"/><path class="cls-1" d="M380.31,662.29l-1.23-78.36-.18-11.32c-.15-9.64-15.15-9.67-15,0l1.23,78.36,.18,11.32c.15,9.64,15.15,9.67,15,0h0Z"/><path class="cls-1" d="M542.28,509.52c-9.77,.52-19.57,1.81-29.18,3.54-13.98,2.51-30.7,6.08-41.24,16.36-9.21,8.99-7.8,24.02-8.2,35.88-.59,17.39-.89,34.81-2.44,52.15-.76,8.53-1.79,17.09-3.94,25.39-.82,3.18-2.03,6.89-2.91,8.6-.37,.72-2.51,3.96-1.5,2.74-.35,.42-.71,.86-1.12,1.23-1.57,1.43,.52-.24-.5,.4-8.14,5.15-.62,18.13,7.57,12.95,10.9-6.9,13.56-22.47,15.35-34.2,2.67-17.48,3.39-35.18,3.96-52.83,.25-7.83,.44-15.67,.79-23.49,.13-2.97,.28-5.93,.51-8.89,.1-1.33,.24-2.65,.37-3.97,.2-1.95-.21,1.15-.01,0,.12-.68,.23-1.35,.39-2.02,.51-2.01-.62,1.35,.18-.58,.24-.58,.66-1.16,1.02-1.68-.75,1.07,1.2-1.21,1.6-1.58,1.49-1.38,4.47-3.12,7.25-4.45,5.92-2.83,13.32-4.75,20.11-6.23,10.99-2.39,20.67-3.73,31.92-4.34,9.6-.52,9.66-15.52,0-15h0Z"/><path class="cls-1" d="M495.44,561.05h37.82c9.65,0,9.67-15,0-15h-37.82c-9.65,0-9.67,15,0,15h0Z"/><path class="cls-1" d="M490.51,585l53.8,.36c9.65,.06,9.66-14.94,0-15l-53.8-.36c-9.65-.06-9.66,14.94,0,15h0Z"/><path class="cls-1" d="M503.28,580.72l1.4,43.14c.31,9.63,15.31,9.67,15,0l-1.4-43.14c-.31-9.63-15.31-9.67-15,0h0Z"/><path class="cls-1" d="M481.15,603.69c-.16,5.09-.02,10.22,.5,15.28,.73,7.21,1.75,16.67,9.16,20.15,6.14,2.88,14.51,2,21.09,1.74,5.33-.21,10.67-.58,15.98-1.1,4.03-.4,7.5-3.16,7.5-7.5,0-3.75-3.44-7.9-7.5-7.5-9.95,.98-21.91,.81-30.32,.84-.27,0-.93-.39-1.16-.3-.66,.26,2.07,1.71,2.21,1.69-.43,.05-.8-1.75-.94-2.37-.63-2.74-1.02-5.4-1.23-8.21-.31-4.23-.41-8.49-.28-12.73,.3-9.66-14.7-9.65-15,0h0Z"/><path class="cls-1" d="M523.4,603.92c2.78-.73,3.27-.75,5.53-.84s2.99-.02,4.61,.32c1.11,.23,.85-.15,.99,.6,.2,1.07,.04,5.67,.14,7.9,.2,4.3,.48,8.61,.93,12.89,1.87,17.59,6.24,42.37,27.54,45,4.03,.5,7.5-3.8,7.5-7.5,0-4.47-3.46-7-7.5-7.5-1.29-.16-3.84-2.05-5.28-4.16-2.39-3.5-3.69-7.56-4.74-11.63-2.27-8.71-3.01-17.71-3.43-26.68s.07-17.66-8.86-22.12c-6.39-3.19-14.69-2.51-21.42-.75-9.33,2.44-5.37,16.91,3.99,14.46h0Z"/><path class="cls-1" d="M601.37,531.03l40.98-.41c9.65-.1,9.67-15.1,0-15l-40.98,.41c-9.65,.1-9.67,15.1,0,15h0Z"/><path class="cls-1" d="M596.37,555.9h49.87c9.65,0,9.67-15,0-15h-49.87c-9.65,0-9.67,15,0,15h0Z"/><path class="cls-1" d="M602.32,551.2c-.75,13.46,8.8,25.18,22.7,24.85,14.73-.35,21.36-13.68,18.93-26.84-1.75-9.48-16.21-5.46-14.46,3.99,.11,.6,.02,1.34-.13-1.08,.04,.6,.15,1.2,.15,1.8s.02,1.19,.01,1.79c-.03,1.89,.14,.29-.13,1.46-.69,2.95-1.39,4.17-5.62,3.88-3.88-.26-5.07-2.21-5.79-4.6-.27-.9-.47-1.82-.62-2.74,.2,1.19,.04,.44,0-.32s-.07-1.46-.03-2.19c.54-9.64-14.46-9.61-15,0h0Z"/><path class="cls-1" d="M593.93,588.49c2.25,15.09,18.81,23.56,32.78,22.54,14.24-1.04,24.44-12.18,25.42-26.21,.67-9.63-14.33-9.59-15,0-.02,.36-.18,1.14,.05-.24,.29-1.66-.1,.52-.2,.92-.18,.73-.36,1.46-.57,2.18-.34,1.13-.7,1.82-.64,1.72-2.05,4.08-5.03,6.5-10.33,6.7s-11.67-1.83-14.4-5.47c-.65-.87-1.15-1.84-1.66-2.8-.85-1.58,.07,.57-.35-.88-.23-.81-.5-1.6-.63-2.44-.6-4-5.66-6.24-9.23-5.24-4.29,1.2-5.84,5.19-5.24,9.23h0Z"/><path class="cls-1" d="M615.91,574.17v48.53c0,9.65,15,9.67,15,0v-48.53c0-9.65-15-9.67-15,0h0Z"/><path class="cls-1" d="M609.8,635.46h32.52c9.65,0,9.67-15,0-15h-32.52c-9.65,0-9.67,15,0,15h0Z"/><path class="cls-1" d="M593.91,620.12c-1.52,14.6,1.29,33.36,13.45,42.95,9.29,7.32,23.22,7.94,33.5,2.25,9.01-4.99,13.99-14.91,15.84-24.7,1.26-6.66,1.78-13.73,.97-20.49-.48-4.02-3.1-7.5-7.5-7.5-3.68,0-7.99,3.45-7.5,7.5s.44,8.18,.12,12.22c-.44,5.58-2.2,13.65-6.55,17.83-4.66,4.48-13.9,5.47-19.52,1.28-1.94-1.45-3.85-4.22-5.17-7.39-.72-1.71-2.14-7.73-2.32-9.03-.68-4.87-.81-10.01-.3-14.91,.42-4.03-3.75-7.5-7.5-7.5-4.4,0-7.08,3.45-7.5,7.5h0Z"/><path class="cls-1" d="M658,572.71h52.67c9.65,0,9.67-15,0-15h-52.67c-9.65,0-9.67,15,0,15h0Z"/><path class="cls-1" d="M676.84,517.02v144.57c0,9.65,15,9.67,15,0v-144.57c0-9.65-15-9.67-15,0h0Z"/><path class="cls-1" d="M752.05,534.37c.31-.06,.63-.1,.95-.15,1.52-.25-1.03,.12-.48,.06,.7-.08,1.4-.17,2.1-.24,3.23-.33,6.47-.49,9.71-.44,6.99,.11,15.03,1.21,19.41,5.45s4.22,13.26,.12,17.01c-2.01,1.84-5.12,3.07-8.8,3.86-3.18,.68-7.03,.85-11.04,.75-2.21-.06-4.42-.2-6.62-.43-.92-.09-1.85-.2-2.77-.32,1.55,.21-.46-.08-1.02-.17-1.69-.28-3.38-.57-5.04-.97-9.38-2.23-13.39,12.23-3.99,14.46,15.38,3.66,36.7,5.26,49.32-6.06,9.04-8.12,10.48-23.12,4.55-33.46-5.67-9.88-17-13.54-27.66-14.73-7.51-.84-15.29-.42-22.72,.91-9.49,1.7-5.47,16.16,3.99,14.46h0Z"/><path class="cls-1" d="M742.08,554.64h35.33c7.79,0,20.08-1.17,23.26,7.92s17.67,5.16,14.46-3.99c-5.27-15.01-20.45-18.93-34.8-18.93h-38.25c-9.65,0-9.67,15,0,15h0Z"/><path class="cls-1" d="M761.38,517.02v79.97c0,7.24,11.25,7.25,11.25,0v-79.97c0-7.24-11.25-7.25-11.25,0h0Z"/><path class="cls-1" d="M759.68,570.69l-17.95,12.25c-5.94,4.06-.32,13.81,5.68,9.71l17.95-12.25c5.94-4.06,.32-13.81-5.68-9.71h0Z"/><path class="cls-1" d="M767.66,580.4l19.94,13.13c6.06,3.99,11.71-5.74,5.68-9.71l-19.94-13.13c-6.06-3.99-11.71,5.74-5.68,9.71h0Z"/><path class="cls-1" d="M746.56,602.61l43.88-.02-5.62-5.62c-.55,8.73-.47,17.54,.07,26.26,.78,12.73,1.95,28.03,9.68,38.72,4.2,5.81,13.97,.2,9.71-5.68-7.01-9.69-7.69-23.78-8.27-35.3-.4-7.98-.45-16.03,.06-24,.19-3.04-2.73-5.63-5.62-5.62l-43.88,.02c-7.24,0-7.25,11.25,0,11.25h0Z"/><path class="cls-1" d="M733.66,606.63c3.93,16.83,3.25,37.15-5.92,52.12-3.79,6.19,5.94,11.85,9.71,5.68,10.74-17.55,11.65-41.07,7.05-60.79-1.64-7.05-12.49-4.06-10.85,2.99h0Z"/><path class="cls-1" d="M750.67,662.51h32.17c7.24,0,7.25-11.25,0-11.25h-32.17c-7.24,0-7.25,11.25,0,11.25h0Z"/><path class="cls-1" d="M767.94,645.33c-.39,0-.78-.01-1.18-.03-5.12-.28-9.21-2.12-12.15-5.47-5.14-5.87-4.56-14.2-4.53-14.56h0c1.24-15.39,8.84-17.51,16.87-17.51,6.16,0,10.83,1.83,13.87,5.43,4.02,4.75,3.6,10.92,3.41,12.54,.03,1.83-.16,10.18-5.42,15.41-2.81,2.79-6.46,4.2-10.87,4.2Zm-10.88-19.53c-.01,.22-.31,5.87,2.84,9.44,1.67,1.89,4.04,2.89,7.24,3.06,2.91,.16,5.11-.54,6.72-2.12,2.99-2.95,3.45-8.57,3.37-10.49v-.36l.04-.37s.64-4.4-1.83-7.29c-1.66-1.93-4.52-2.92-8.5-2.92-7.23,0-9.17,2.17-9.89,11.04Z"/><path class="cls-1" d="M753.55,630.3h24.93c4.83,0,4.83-7.5,0-7.5h-24.93c-4.83,0-4.83,7.5,0,7.5h0Z"/><path class="cls-1" d="M764.34,611.57v26.74c0,4.83,7.5,4.83,7.5,0v-26.74c0-4.83-7.5-4.83-7.5,0h0Z"/><path class="cls-1" d="M854.3,518.59c-9.16-3.13-20.96-4.18-29.62,.78-15.7,8.99-12.38,34.31,.92,43.74,5.63,3.99,12.43,5.48,18.83,7.76,1.84,.66,4.75,2.05,5.77,3.15,.5,.54,.69,.8,1.31,2.07-.96-1.94,.38,1.7,.55,2.51,.59,2.71,.59,3.2,.85,6.39,.31,3.82,.43,7.67,.47,11.5,.09,7.94-.16,15.89-.54,23.83-.56,11.6-1.38,23.21-2.54,34.77-.4,4.04,3.74,7.5,7.5,7.5,4.39,0,7.09-3.45,7.5-7.5,2.29-22.81,4.35-46.31,2.68-69.22-.41-5.65-.87-11.71-3.32-16.91-2.9-6.15-8.5-9.59-14.64-11.96-5.45-2.11-11.86-3.13-16.08-6.26s-6.01-10.58-3.83-15.97c.66-1.63,1.9-2.47,3.05-2.89,2.86-1.04,4.2-.97,7.71-.76,2.43,.15,5.78,.7,9.44,1.95,9.15,3.13,13.08-11.35,3.99-14.46h0Z"/><path class="cls-1" d="M828.35,563.95v91.12c0,9.65,15,9.67,15,0v-91.12c0-9.65-15-9.67-15,0h0Z"/><path class="cls-1" d="M850.09,728.46H340.05c-53.22,0-96.51-43.3-96.51-96.51v-92.96c0-53.22,43.3-96.51,96.51-96.51h510.04c53.22,0,96.51,43.3,96.51,96.51v92.96c0,53.22-43.3,96.51-96.51,96.51ZM340.05,454.46c-46.6,0-84.51,37.91-84.51,84.51v92.96c0,46.6,37.91,84.51,84.51,84.51h510.04c46.6,0,84.51-37.91,84.51-84.51v-92.96c0-46.6-37.91-84.51-84.51-84.51H340.05Z"/></svg>